<svg width="36" height="36" viewBox="0 0 36 36" fill="none" xmlns="http://www.w3.org/2000/svg">
<rect width="36" height="36" fill="black"/>
<g clip-path="url(#clip0_11867_34529)">
<path d="M10.3805 25.6272H5.34375L10.8954 10.3721H15.9322L10.3805 25.6272Z" fill="white"/>
<path d="M16.4798 25.6274H21.5165L15.9649 10.3723H10.9281L16.4798 25.6274Z" fill="white"/>
<path d="M8.81982 20.3496V24.1794H17.8313V20.3496H8.81982Z" fill="white"/>
<path d="M28.6452 11.064L29.6912 13.9123H22.9808L23.9303 15.0387C23.9303 15.0387 23.9946 15.1192 28.8544 20.1881C29.1923 20.7191 29.3693 21.2502 29.3693 21.8134C29.3693 22.6663 29.0797 23.3904 28.5004 24.018C27.9211 24.6456 27.2452 24.9352 26.4406 24.9352H19.2958V22.0709H26.8429L25.7165 20.8961L20.8245 15.795C20.4866 15.3766 20.3257 14.8456 20.3257 14.1698C20.3257 13.3169 20.6153 12.5927 21.1947 11.9652C21.774 11.3537 22.4498 11.0479 23.2544 11.0479H28.6613M29.1279 10.3721H23.2383C22.2245 10.3721 21.3717 10.7583 20.6636 11.5146C19.9556 12.2709 19.6176 13.156 19.6176 14.1858C19.6176 15.0226 19.8429 15.7146 20.2935 16.2617L25.2176 21.395H18.5878V25.6432H26.4245C27.4222 25.6432 28.2751 25.257 28.9831 24.5007C29.6912 23.7444 30.0452 22.8433 30.0452 21.8295C30.0452 21.1053 29.8199 20.4134 29.3854 19.7697C26.1349 16.3743 24.4774 14.6686 24.4452 14.6203H30.6728L29.1279 10.3721Z" fill="white"/>
</g>
<defs>
<clipPath id="clip0_11867_34529">
<rect width="25.3125" height="15.2551" fill="white" transform="translate(5.34375 10.3721)"/>
</clipPath>
</defs>
</svg>
