<svg width="16" height="16" viewBox="0 0 16 16" fill="none" xmlns="http://www.w3.org/2000/svg">
<path d="M8.69979 3.5763V14.6966C8.69979 14.8071 8.61025 14.8966 8.49979 14.8966H7.49979C7.38933 14.8966 7.29979 14.8071 7.29979 14.6966V3.57693L4.18134 6.69538C4.10324 6.77348 3.9766 6.77348 3.8985 6.69538L3.19139 5.98827C3.11329 5.91016 3.11329 5.78353 3.19139 5.70543L7.64625 1.24996C7.84151 1.0547 8.15809 1.0547 8.35335 1.24996L12.8081 5.70473C12.8862 5.78284 12.8862 5.90947 12.8081 5.98758L12.101 6.69468C12.0229 6.77279 11.8963 6.77279 11.8182 6.69468L8.69979 3.5763Z" fill="#1BC57D"/>
</svg>
