<svg width="16" height="16" viewBox="0 0 16 16" fill="none" xmlns="http://www.w3.org/2000/svg">
<path d="M2.59465 4.94945C2.51655 5.02755 2.51655 5.15419 2.59465 5.23229L3.30176 5.9394C3.37986 6.0175 3.5065 6.0175 3.5846 5.9394L5.34998 4.17402L5.35 14.3C5.35 14.4105 5.43954 14.5 5.55 14.5H6.55C6.66045 14.5 6.75 14.4105 6.75 14.3L6.74998 2.00122C6.74998 1.55577 6.21141 1.33269 5.89643 1.64767L2.59465 4.94945ZM13.4053 11.0508C13.4835 10.9727 13.4835 10.8461 13.4053 10.768L12.6982 10.0609C12.6201 9.98275 12.4935 9.98275 12.4154 10.0609L10.65 11.8262L10.65 1.70025C10.65 1.58979 10.5605 1.50025 10.45 1.50025H9.45C9.33955 1.50025 9.25 1.58979 9.25 1.70025L9.25002 13.999C9.25002 14.4445 9.78859 14.6676 10.1036 14.3526L13.4053 11.0508Z" fill="#9BA0B0"/>
</svg>
