<svg width="16" height="16" viewBox="0 0 16 16" fill="none" xmlns="http://www.w3.org/2000/svg">
<path d="M7.30021 12.4238V1.30352C7.30021 1.19306 7.38976 1.10352 7.50021 1.10352H8.50021C8.61067 1.10352 8.70021 1.19306 8.70021 1.30352V12.4232L11.8187 9.30475C11.8968 9.22665 12.0234 9.22665 12.1015 9.30475L12.8086 10.0119C12.8867 10.09 12.8867 10.2166 12.8086 10.2947L8.35376 14.7502C8.1585 14.9454 7.84192 14.9454 7.64665 14.7502L3.19188 10.2954C3.11377 10.2173 3.11377 10.0907 3.19188 10.0126L3.89899 9.30544C3.97709 9.22734 4.10372 9.22734 4.18183 9.30544L7.30021 12.4238Z" fill="#E43555"/>
</svg>
