<svg width="28" height="28" viewBox="0 0 28 28" fill="none" xmlns="http://www.w3.org/2000/svg">
<rect width="28" height="28" rx="4" fill="#2A2E3A"/>
<path d="M5.875 21.5H22.125C22.5417 21.5 22.75 21.7083 22.75 22.125C22.75 22.5417 22.5417 22.75 22.125 22.75H5.875C5.45833 22.75 5.25 22.5417 5.25 22.125C5.25 21.7083 5.45833 21.5 5.875 21.5Z" fill="white"/>
<path d="M12.75 22.75H7.75V15.8359C7.75036 15.5149 7.87806 15.2071 8.10508 14.9801C8.33209 14.7531 8.63989 14.6254 8.96094 14.625H11.5391C11.8601 14.6254 12.1679 14.7531 12.3949 14.9801C12.6219 15.2071 12.7496 15.5149 12.75 15.8359V22.75ZM9 21.5H11.5V15.875H9V21.5ZM20.25 22.75H15.25V17.0859C15.2504 16.7649 15.3781 16.4571 15.6051 16.2301C15.8321 16.0031 16.1399 15.8754 16.4609 15.875H19.0391C19.3601 15.8754 19.6679 16.0031 19.8949 16.2301C20.1219 16.4571 20.2496 16.7649 20.25 17.0859V22.75ZM16.5 21.5H19V17.125H16.5V21.5Z" fill="white"/>
<path d="M16.5 22.75H11.5V12.2943C11.5004 11.9732 11.6281 11.6654 11.8551 11.4384C12.0821 11.2114 12.3899 11.0837 12.711 11.0833H15.2891C15.6102 11.0837 15.918 11.2114 16.145 11.4384C16.372 11.6654 16.4997 11.9732 16.5 12.2943V22.75ZM12.75 21.5H15.25V12.3333H12.75V21.5ZM15.61 10.25H12.3973C12.2897 10.25 12.1839 10.2222 12.0901 10.1693C11.9964 10.1164 11.918 10.0402 11.8623 9.94805L10.9651 7.87774C10.9078 7.78294 10.8768 7.67463 10.8752 7.5639C10.8736 7.45317 10.9014 7.34399 10.9558 7.24754C11.0102 7.1511 11.0893 7.07084 11.1849 7.01499C11.2806 6.95914 11.3893 6.92971 11.5 6.92969H12.5998L13.4707 5.54297C13.527 5.45339 13.6051 5.37955 13.6976 5.32837C13.7902 5.27719 13.8943 5.25034 14 5.25034C14.1058 5.25034 14.2099 5.27719 14.3024 5.32837C14.395 5.37955 14.4731 5.45339 14.5293 5.54297L15.4002 6.92969H16.5C16.6108 6.92971 16.7195 6.95914 16.8152 7.01499C16.9108 7.07084 16.9899 7.1511 17.0443 7.24754C17.0987 7.34399 17.1265 7.45317 17.1249 7.5639C17.1233 7.67463 17.0922 7.78294 17.035 7.87774L16.145 9.94805C16.0893 10.0402 16.0109 10.1164 15.9171 10.1693C15.8234 10.2222 15.7176 10.25 15.61 10.25ZM12.75 9H15.2573L15.3926 8.17969H15.0547C14.9489 8.17966 14.8449 8.15276 14.7523 8.10152C14.6597 8.05027 14.5816 7.97637 14.5254 7.88672L14 7.0504L13.4747 7.88672C13.4184 7.97637 13.3404 8.05027 13.2478 8.10152C13.1552 8.15276 13.0512 8.17966 12.9454 8.17969H12.6075L12.75 9Z" fill="white"/>
</svg>
