<svg width="25" height="24" viewBox="0 0 25 24" fill="none" xmlns="http://www.w3.org/2000/svg">
<path d="M2.27341 10.5623C8.71585 7.75543 13.0118 5.90497 15.1613 5.01092C21.2986 2.45823 22.5738 2.0148 23.405 2.00016C23.5878 1.99694 23.9966 2.04224 24.2614 2.25709C24.485 2.43851 24.5465 2.68357 24.5759 2.85557C24.6054 3.02757 24.642 3.41939 24.6129 3.72555C24.3611 6.37131 23.475 11.8751 22.7416 16.0911C21.8867 15.4083 20.8028 15 19.6235 15H11.1626C11.3505 14.6422 11.7169 14.289 12.1226 13.898C12.2923 13.7344 12.4688 13.5642 12.6421 13.3842C12.7194 13.3039 13.0976 12.9523 13.6309 12.4565C15.3418 10.8659 18.648 7.79216 18.7314 7.43647C18.7451 7.37812 18.7578 7.16061 18.6286 7.04576C18.4994 6.93091 18.3087 6.97018 18.171 7.00142C17.976 7.04569 14.8687 9.09945 8.84937 13.1627C7.9674 13.7683 7.16853 14.0634 6.45277 14.0479C5.66371 14.0309 4.14587 13.6018 3.01751 13.235C2.85179 13.1811 2.69015 13.1303 2.53415 13.0813C1.38726 12.7206 0.545036 12.4558 0.629349 11.7832C0.679238 11.3853 1.22726 10.9783 2.27341 10.5623ZM1.62354 20C1.62354 22.2091 3.4144 24 5.62354 24H19.6235C21.8327 24 23.6235 22.2091 23.6235 20C23.6235 17.7909 21.8327 16 19.6235 16H5.62354C3.4144 16 1.62354 17.7909 1.62354 20ZM17.8735 18.4497V22.5H16.6738V18.4497H15.2109V17.5234H19.3706V18.4497H17.8735ZM14.9957 20.1143C14.9957 20.4948 14.9422 20.8366 14.8351 21.1396C14.7303 21.4404 14.581 21.6979 14.3873 21.9121C14.1936 22.124 13.9646 22.2869 13.7003 22.4009C13.436 22.5125 13.1443 22.5684 12.8253 22.5684C12.504 22.5684 12.2101 22.5125 11.9435 22.4009C11.6791 22.2869 11.449 22.124 11.253 21.9121C11.0594 21.6979 10.909 21.4404 10.8019 21.1396C10.697 20.8366 10.6446 20.4948 10.6446 20.1143V19.9126C10.6446 19.5321 10.697 19.1903 10.8019 18.8872C10.909 18.5841 11.0582 18.3267 11.2496 18.1147C11.4433 17.9006 11.6723 17.7376 11.9366 17.626C12.2032 17.512 12.4972 17.4551 12.8185 17.4551C13.1375 17.4551 13.4291 17.512 13.6935 17.626C13.9601 17.7376 14.1902 17.9006 14.3839 18.1147C14.5776 18.3267 14.728 18.5841 14.8351 18.8872C14.9422 19.1903 14.9957 19.5321 14.9957 19.9126V20.1143ZM13.7789 19.9058V20.1143C13.7789 20.3581 13.7573 20.5745 13.714 20.7637C13.673 20.9505 13.6114 21.1089 13.5294 21.2388C13.4497 21.3687 13.3505 21.4666 13.232 21.5327C13.1136 21.5988 12.978 21.6318 12.8253 21.6318C12.6658 21.6318 12.5257 21.5988 12.4049 21.5327C12.2864 21.4666 12.1861 21.3687 12.1041 21.2388C12.0244 21.1089 11.964 20.9505 11.923 20.7637C11.8842 20.5745 11.8649 20.3581 11.8649 20.1143V19.9058C11.8649 19.6597 11.8842 19.4432 11.923 19.2563C11.964 19.0672 12.0244 18.9089 12.1041 18.7812C12.1839 18.6536 12.283 18.5579 12.4015 18.4941C12.52 18.4281 12.659 18.395 12.8185 18.395C12.9711 18.395 13.1067 18.4281 13.2252 18.4941C13.346 18.5579 13.4474 18.6536 13.5294 18.7812C13.6114 18.9089 13.673 19.0672 13.714 19.2563C13.7573 19.4432 13.7789 19.6597 13.7789 19.9058ZM6.13114 17.5139H7.3289V17.5232H8.5352C9.28202 17.5232 9.88749 18.1286 9.88749 18.8754C9.88749 19.4977 9.3831 20.0022 8.76078 20.0022C9.3831 20.0022 9.88749 20.5067 9.88749 21.1291C9.88749 21.8759 9.28202 22.4812 8.5352 22.4812H7.3289V22.4905H6.13114V17.5139ZM7.3289 19.5946H8.14848C8.46586 19.5946 8.72318 19.3373 8.72318 19.0199C8.72318 18.7025 8.46586 18.4452 8.14848 18.4452H7.3289V19.5946ZM7.3289 21.5592H8.14848C8.46586 21.5592 8.72318 21.3019 8.72318 20.9845C8.72318 20.6671 8.46586 20.4098 8.14848 20.4098H7.3289V21.5592Z" fill="#9BA0B0"/>
</svg>
