<svg width="43" height="24" viewBox="0 0 43 24" fill="none" xmlns="http://www.w3.org/2000/svg">
<rect width="43" height="24" rx="4" fill="#477BFF" fill-opacity="0.15"/>
<path d="M14.9072 7.04688V17H13.1914L8.72754 9.87012V17H7.01172V7.04688H8.72754L13.2051 14.1904V7.04688H14.9072ZM23.4658 15.6396V17H18.1816V15.6396H23.4658ZM18.667 7.04688V17H16.9512V7.04688H18.667ZM22.7754 11.2031V12.543H18.1816V11.2031H22.7754ZM23.4316 7.04688V8.41406H18.1816V7.04688H23.4316ZM27.3623 14.7646L29.3447 7.04688H30.3838L30.2676 9.03613L28.1484 17H27.0684L27.3623 14.7646ZM25.8789 7.04688L27.4854 14.7031L27.6289 17H26.4805L24.1768 7.04688H25.8789ZM32.6328 14.6826L34.2188 7.04688H35.9277L33.624 17H32.4756L32.6328 14.6826ZM30.7871 7.04688L32.749 14.7852L33.0361 17H31.9561L29.8711 9.03613L29.7617 7.04688H30.7871Z" fill="#477BFF"/>
</svg>
